<svg xmlns="http://www.w3.org/2000/svg" width="285" height="253" viewBox="0 0 285 253">
    <g fill="none" fill-rule="evenodd">
        <path fill="#7ED321" d="M109.751 180.38c.349.35.349.35.697 1.05h-2.44c0-1.05.697-1.05 1.743-1.05zm91.32-24.489c.348 0 1.045.35 1.394.35 1.742.35 2.091 1.05 1.742 3.149l1.046.35h.349l.348 1.05c0 1.049 0 1.399-.697 1.749-1.046 1.05-.348 0-1.046 1.399-.348 1.4-2.09 1.4-3.136 2.449-.698.35-1.046.7-1.395 1.4 1.046.35 2.789.699 2.092 2.798-.349 1.4-2.092 1.05-3.486 1.4.349 0 2.789 1.049 3.486 1.399 1.394.7 1.394 1.4 1.742 3.148-.348.7 0 0 0 .35l-.697.35c0 .7.349 1.05.349 1.75 0 .699-.349.699-.697 1.399h5.228c1.743.7 1.743 2.449 0 3.148-1.046.35-4.183 0-5.228 0-2.092 0-3.137.35-5.228.35-4.88 0-2.789.35-4.532 1.05-1.742.35-.697-.7-4.88-.7-4.879 0-6.273 1.4-11.85-.7l13.942-11.894.349-.7v-.35l1.045-2.1v-1.749c2.789-2.098 5.926-4.547 6.274-8.046l.349-.35c.697-.35 1.045-1.05 1.045-1.749.697.35 1.394 0 2.092-.7zm-7.669 24.49h2.44c0-.35 0-1.75-.348-2.1l-.697-1.749h-1.046c.349.7 1.046 1.4 1.046 2.45 0 1.049-.697 1.049-1.395 1.399zm-11.502 0c-.348.35-.348.35-.697 1.05h2.44c0-1.05-.348-1.05-1.743-1.05zM128.921 42.89l1.046.35c-.697.7-.697.7-1.394 1.75-.697.7-.697 1.05-1.395 1.749-1.045.7-2.44 1.75-3.137 3.149h2.092c-.349 2.099-2.789 2.448-4.183 3.148l.697.7c-.697.35-2.091 1.749-2.788 2.799 1.743.35 2.44-.7 4.182-.7-.697 2.449-5.576 2.099-6.273 4.548l1.394 1.05c-.697 1.049-2.091 1.749-2.44 3.148.697 0 2.091 0 2.788.35-.697 1.05-3.137 1.05-4.182 2.449 1.743 1.4 2.788.35 4.53-.7l4.183-2.099c2.44-1.05 6.971-3.149 10.108-2.449-.348.35-6.273 3.149-7.668 3.848-2.44 1.4-4.88 2.8-7.668 3.849-3.137 1.399-5.925 1.05-8.713 3.148-1.743 1.05-5.926 3.849-6.274 5.248.697.7 1.742.7 2.44 1.4-.698 2.798-8.017 6.297-8.714 9.445 2.091-.35 3.834-.7 5.925-1.4 5.228-1.399 10.108-6.996 13.942-7.346-1.046 3.498-5.577 6.997-9.062 9.096-2.091 1.05-11.154 4.548-10.108 7.697 2.44.35 3.834-.7 5.925-.35-.348 1.05-4.53 3.148-5.925 3.848-1.743 1.05-5.577 2.449-5.925 4.198 2.44 1.05 3.137.35 5.925-.7l5.228-2.099c5.228-2.099 8.714-3.498 14.29-3.148l-4.182 1.749c-7.32 2.449-14.29 5.598-21.261 8.396-2.789 1.05-5.577 2.799-8.017 3.849.697 2.798 2.44 5.597 3.834 8.046.349 1.05.697 1.75 1.394 2.449 1.046 0 5.228-2.1 6.623-2.799 4.182-1.75 9.41-3.148 13.942-4.548 2.09-.7 4.88-2.099 6.97-2.449-2.788 2.45-8.365 5.248-12.896 6.297-3.485 1.05-4.182 1.05-6.622 3.15-2.091 2.098-2.091 2.798-5.925 3.498.697 1.749 5.576 4.897 7.32 6.297.696.35 1.045 1.05 1.742 1.749 1.045.7 1.045.7 2.788.35 8.017-1.05 16.382-2.1 24.05-4.198 1.394-.35 4.183-1.4 5.577-1.75-1.743 1.75-10.457 4.898-12.897 5.598-1.394.35-14.639 3.498-14.639 3.498 1.395 1.05 10.457 8.397 11.851 9.796l5.577 5.598c2.091 2.099 2.788 1.05 3.137 2.099.697 1.399.697 5.247 5.925 2.798.697 6.298-1.046 3.849 2.788 8.047 1.046 1.4 2.44 3.148 3.834 4.548.349-.35.349-.7.698-1.4.697-1.05 1.394-2.448 2.09-3.498-.696-1.05-.348-2.449 1.744-5.248 1.045-1.05 2.788-3.148 5.228-4.898 1.394-1.749 2.44-3.498 3.834-5.247.697-1.05 1.743-2.1 2.44-3.149.348-.7 1.045-1.05 1.394-1.749.348-.35.348-.7.697-1.05l.349-.35 2.44-2.098h.696c.349-.35 1.046-.7 1.395-.7-2.092-1.4-4.88-2.799-5.926-5.248.697.35.697.7 1.743 1.4 1.394 1.05 3.834 2.798 5.577 3.148 2.091.35 4.88-1.05 12.199-.35 1.394.35 1.394 0 2.44-.7 1.743-1.049 5.925-4.547 7.668-5.947h.348c.698-1.749 2.789-2.798 4.183-3.848l1.046-.7h.348c.349-.7.697-1.4 1.394-1.749-4.182-1.05-6.97-.7-10.456-3.498-1.394-1.05-1.743-1.4-3.834-2.1-4.88-1.399-10.108-3.498-14.64-5.947-.696-.35-1.393-.7-2.09-1.4 5.925.35 10.108 3.15 14.987 4.899 2.44 1.05 13.245 3.848 16.033 3.848-.697-2.1-2.44-1.4-2.788-3.499 2.091 0 6.274 1.05 9.41 1.75.698-.35 1.046-.7 1.744-1.4-2.44-1.4-7.669-2.449-8.017-4.548.697-.35 2.788-.7 3.834-.7-.349-1.399-1.743-2.098-3.137-2.798l-8.017-3.848c-1.394-.7-3.136-1.4-3.136-2.8 1.045-.699 1.742-.349 2.44-1.049-1.046-3.148-13.245-5.947-16.382-6.647-4.532-1.05-9.063-2.449-12.897-4.198-1.394-.7-2.44-1.4-3.834-2.099h1.395c5.576 2.1 21.958 5.947 26.14 5.598.35-2.8-7.319-6.997-7.667-9.796 2.44-.35 5.228 1.75 8.016 1.75-.697-2.45-4.531-3.5-4.88-5.249.698-1.05.349 0 .698-.7l-3.486-2.098c-1.743-1.4-1.394-1.4-3.834-2.1-5.577-1.749-23.004-5.947-25.095-9.795 1.742 0 5.576 1.4 7.668 2.099l15.684 4.198c3.834 1.05 3.486.7 8.714.35l-.349-.35c-2.788-1.749-8.713-1.05-10.107-4.198l5.576.35c-1.394-1.05-1.742-1.05-3.834-1.75-1.394-.35-2.788-1.049-3.834-1.399 1.046-.35 3.834 0 5.229 0-.349-1.4-1.395-1.749-2.092-2.449-1.394-1.399-5.925-5.597-6.274-6.997h4.183c-.697-1.399-7.32-7.696-8.714-8.396l1.394-.7-4.53-2.448c-1.395-1.05-3.486-2.1-2.79-4.199 1.047-.35 2.092.35 3.138.35-3.834-5.947-6.971-12.244-10.108-18.541-.349-.7-.349-.7-1.046-1.05-2.091 2.799-3.834 6.647-5.576 10.145-3.137 6.298-3.834 4.898-4.88 6.997-.697.7-.697 1.05-1.743 1.75zM98.25 180.382h-2.44c0-.35 0-1.75.349-2.1l.697-1.749H97.9c-.348.7-1.045 1.4-1.045 2.45 0 1.049.697 1.049 1.394 1.399zm-8.017-26.239v.7c1.046 0 .697.35 1.395.35h1.394c-.697.35 0 .35-1.394.7-.698 0-1.395.35-2.092.35-1.742.35-2.091 1.049-1.742 3.148l-1.046.35h-.349l-.348 1.05c0 1.049 0 1.399.697 1.749 1.046 1.05.348 0 1.046 1.399.348 1.4 2.09 1.4 3.136 2.449.698.35 1.046.7 1.395 1.4-1.046.35-2.789.699-2.092 2.798.349 1.4 2.092 1.05 3.486 1.4-.349 0-2.789 1.049-3.486 1.399-1.394.7-1.394 1.4-1.742 3.148.348.7 0 0 0 .35l.697.35c0 .7-.349 1.05-.349 1.75 0 .699.349.699.697 1.399h-5.228c-1.743.7-1.743 2.449 0 3.148 1.046.35 4.183 0 5.228 0 2.092 0 3.137.35 5.228.35 4.88 0 2.789.35 4.532 1.05 1.742.35.697-.7 4.88-.7 4.879 0 6.273 1.4 11.85-.7 1.046-.35 1.046-.7 1.394-1.05.349-1.049.349-1.749.349-2.798-.697-1.75-1.395-3.848-2.092-5.248-.697-.7-.697-1.4-1.394-2.449-1.394-2.099-2.091-2.449-3.485-4.198-2.092-2.099-1.395-3.848-5.229-5.947 0-1.4 0-2.1-1.045-2.45-1.743-.699-.697 0-2.091-1.398-1.743-2.1-.349-3.149-3.834-3.149 0-2.449-2.44-2.449-4.183-1.4.348-.7 1.046-.7 2.091-.7-.348-1.398-.348-.349 0-1.049 0 0 0-.35.349-.35-1.046-.35-3.486-2.798-4.88-3.848l-7.668-6.297c0 .7 1.394 3.149 1.743 3.848 1.045 1.75 1.045 2.1 1.743 4.198 1.045 0 1.742 0 2.788.35 0 1.75-2.091 1.4-2.091 3.149 2.09 1.4 4.53 0 5.925-.35-1.046 1.4-1.743 2.1-4.183 1.75z"/>
        <path fill="#F8E71C" fill-rule="nonzero" d="M138.177 179.973c.348-.699 1.392-1.398 2.088-.35.348.7-1.392 3.495-2.088 6.989-.348 1.398-.348 3.145-.348 4.542.348 2.796 1.74 3.494 1.392 4.543-.348 1.048-1.392 1.048-2.088.349-.348-.35-1.043-1.747-1.043-2.446-1.392-4.193 0-9.783 2.087-13.627zM35.192 237.626h-18.44v-2.446h4.871v-5.241l-2.435.699c-1.044.35-2.088.699-2.783.699-.696 0-1.74.349-3.132.349-3.479 0-6.262-1.048-8.698-2.795C1.792 226.794.4 224.348.4 221.204c0-3.495 1.392-6.64 4.523-9.434 1.74-1.748 4.175-3.495 8.002-5.94a84.253 84.253 0 0 0 3.827-2.446c1.392-1.049 2.784-2.097 4.523-3.494v-.7h-4.87v-2.445h18.787v2.446h-4.87v.699c1.739 1.747 3.479 2.795 4.522 3.494.696.349 2.088 1.397 3.827 2.446 3.828 2.445 6.263 4.192 8.003 5.94 3.131 3.144 4.523 6.289 4.523 9.783 0 3.145-1.392 5.59-4.175 7.687a15.18 15.18 0 0 1-8.698 2.795h-3.132c-.696 0-1.391-.35-2.783-.698l-2.436-.7v5.242h5.22v1.747zm-14.265-57.653l-1.043-3.843-12.525 3.494-1.392-4.892-2.784.699 3.828 13.627 2.783-.699-1.392-4.892 12.525-3.494zm-3.479-18.17c-.696-5.59-4.175-8.385-9.394-7.686-4.87.699-8.002 3.494-7.306 9.434.696 5.59 3.827 8.386 9.394 7.687 5.219-.699 8.002-3.844 7.306-9.434zm-2.783.35c.348 3.145-1.74 4.892-4.871 5.241-2.783.35-5.219-.699-5.915-4.193-.348-3.144 1.74-4.891 4.523-5.24 3.132-.35 5.567.698 6.263 4.192zm1.392-11.88v-6.29c0-4.891-2.088-6.289-5.22-6.289-2.087 0-3.478 1.747-3.826 2.796-.696-.7-1.392-1.747-2.784-1.398-3.131 0-4.523 2.096-4.175 6.29v5.59l16.005-.699zm-3.132-3.843H9.098v-1.747c0-2.097.348-3.495 1.74-3.495 1.391 0 1.74 1.049 2.087 3.145v2.097zm-6.262.35h-3.48v-1.05c0-1.746.348-2.794 1.74-2.794s1.74.698 1.74 2.445v1.398zm9.394-10.483l.348-3.844-4.523-2.446.695-5.59 4.871-1.048.348-3.844-16.7 3.494-.696 4.892 15.657 8.386zm-6.61-7.687l-5.916-2.796 6.263-.698-.348 3.494zm9.393-10.832l.696-3.844-4.523-1.048.348-1.048c1.044-4.542-1.044-7.687-4.175-8.386-3.48-.699-6.263 1.398-6.959 4.892l-1.391 6.29 16.004 3.144zm-11.83-6.639l.349-1.747c.347-2.096 1.74-2.446 3.479-2.096 1.391.349 2.435 1.397 2.087 3.843l-.348 1.398-5.566-1.398zm15.31-7.687l1.39-3.494-5.914-8.036-1.391-2.446 2.087.698 8.002 3.145 1.392-3.494-14.96-5.94-1.392 3.494 5.914 8.037 1.74 2.096-2.088-.699-8.002-3.144-1.392 3.494 14.613 6.29zm19.483-31.097l2.087-3.145-5.566-3.494-1.392 2.096-11.134-6.988-2.087 3.145 11.133 6.988-2.435 3.494-11.134-6.988-2.087 3.144 11.133 6.989-2.435 3.494-11.134-6.988-2.087 3.144 13.569 8.736 10.09-16.073 3.479 2.446zm.696-6.64l7.306-8.385-2.435-2.097-4.871 5.59-2.784-2.445 4.175-4.542-2.087-1.747-4.175 4.542-2.436-2.446 4.523-5.241-2.435-2.096-6.959 8.036L42.5 65.716zm15.308-16.072c1.392-1.398 2.436-2.446 3.131-3.844l-2.783-1.747c-.696 1.048-1.392 1.747-2.435 2.796-2.436 2.096-5.22 2.445-7.307 0-2.435-2.446-2.087-4.892 0-6.989 1.392-1.048 1.74-1.397 3.132-2.446L50.5 34.618c-1.392.35-2.436 1.048-4.175 2.795-4.175 4.193-4.523 8.037-.696 12.23 3.827 3.843 8.002 3.843 12.177 0zm8.002-7.338l3.132-2.096-7.655-10.832 4.175-2.795-1.74-2.446-11.133 8.036 1.74 2.446 4.175-2.795 7.306 10.482zm9.046-6.29l5.567-3.144c4.175-2.446 4.523-4.892 3.131-7.687-1.043-1.747-3.13-2.096-4.175-1.747.348-.699.696-2.097 0-3.145-1.391-2.795-3.827-2.795-7.306-.699l-4.87 2.796 7.653 13.627zm1.74-4.542l-2.088-3.494 1.392-.699c2.088-1.048 3.131-1.397 3.827 0 .696 1.049 0 2.097-1.74 3.145l-1.391 1.048zm-3.131-5.59l-1.74-3.145 1.044-.699c1.74-1.048 2.783-1.048 3.479.35.696 1.397 0 2.096-1.392 2.795l-1.391.699zm21.919 0c5.219-2.097 6.958-5.94 5.219-11.181-1.74-4.543-5.567-6.64-10.786-4.543-5.219 2.097-7.306 5.94-5.219 10.832 1.74 4.892 5.567 6.988 10.786 4.892zm-1.044-3.145c-3.131 1.048-5.219-.699-6.263-3.145-1.043-2.795-.695-5.24 2.436-6.638 3.131-1.049 5.219.349 6.262 3.144 1.392 2.796 1.044 5.59-2.435 6.64zm17.396-2.795l6.263-1.048c4.523-.7 5.914-3.145 5.566-5.94-.348-2.097-2.087-3.145-3.479-3.145.696-.699 1.392-1.747 1.044-3.145-.696-3.144-2.783-4.193-6.61-3.494l-5.567 1.048 2.783 15.724zm3.131-3.844l-.696-3.843 1.74-.35c2.088-.349 3.48 0 3.48 1.398.347 1.398-.697 2.097-2.784 2.446l-1.74.35zm-1.043-6.29l-.696-3.493 1.043-.35c1.74-.349 2.784 0 3.132 1.398.348 1.398-.696 1.747-2.088 2.097l-1.391.349zm20.527 6.99c5.567-.35 8.698-3.495 8.002-9.086-.348-4.891-3.131-8.036-9.046-7.687-5.567.35-8.698 3.495-8.35 9.085 1.044 5.241 3.827 8.037 9.394 7.687zm0-3.146c-3.131.35-4.871-2.096-4.871-4.891-.348-2.796 1.044-5.241 4.175-5.59 3.131-.35 4.871 1.746 4.871 4.89.348 3.146-.696 5.242-4.175 5.591zm11.133 3.145c1.74-.699 3.48-1.397 4.871-2.795 1.044-1.747 1.392-4.193 2.436-10.482l3.479.349-1.044 13.278 3.827.349 1.392-16.073-10.438-.699c-.695 5.59-1.391 9.434-2.087 10.832-.696 1.048-2.436 1.747-3.48 2.096l1.044 3.145zm17.049.699l4.87 1.048c4.523 1.048 7.655-.35 8.35-3.843.696-3.494-1.391-5.94-5.914-6.989l-1.044-.349 1.044-4.892-3.827-1.048-3.48 16.073zm6.958-6.639c2.435.699 3.131 1.747 2.783 3.145-.348 1.398-1.391 2.446-3.827 1.747l-1.391-.35 1.043-4.891 1.392.35zm7.306 10.133l3.828 1.398 2.087-6.29 6.61 2.097-2.087 6.29 3.827 1.397 5.219-15.374-4.175-1.398-2.088 6.29-6.61-2.097 2.087-6.29-3.479-1.397-5.219 15.374zm17.049 6.29l4.523 2.445c4.175 2.097 7.654 1.398 9.045-1.397 1.74-3.145.348-6.29-4.175-8.386l-1.043-.699 2.435-4.542-3.48-1.747-7.305 14.325zm12.525 6.289l3.479 1.747 7.306-14.326-3.479-1.747-7.306 14.326zm-4.175-11.181c2.087 1.048 2.435 2.446 1.74 3.843-.697 1.398-2.088 1.747-4.176.7l-1.044-.7 2.436-4.542 1.044.699zm9.046 14.326l3.479 2.445 5.914-2.445-.695 6.289 3.479 2.446.348-9.784 9.046-3.144-3.48-2.446-5.566 2.096.348-5.59-3.48-2.446-.347 9.434-9.046 3.145zm17.048 13.277l2.783 2.795 4.523-2.096 3.827 3.844-2.435 4.192 2.783 2.796 8.002-15.025-3.479-3.494-16.004 6.988zm10.09-.35l5.914-2.794-3.479 5.59-2.435-2.795zm2.435 13.977l2.087 3.145 3.828-2.795.695 1.048c2.784 3.843 6.611 4.542 9.046 2.795 2.784-2.096 3.132-5.59 1.044-8.386l-3.479-5.24-13.221 9.433zm12.873-4.193l1.044 1.398c1.044 1.747.696 2.795-.696 3.843-1.392.7-2.783 1.049-4.175-1.048l-.696-1.048 4.523-3.145zm-4.523 16.423l2.436 4.542c2.435 4.193 5.218 5.59 8.35 3.843 3.13-1.747 3.13-4.891.695-9.084l-.695-1.048 2.435-1.398 3.48 6.29 2.783-1.398-5.567-9.784-13.917 8.037zm9.394.698c1.392 2.097 1.044 3.495-.348 4.193-1.044.7-2.435.35-3.48-1.747l-.695-1.048 3.827-2.446.696 1.048zm.696 19.917c2.087 5.241 5.914 6.988 10.785 5.241 4.523-1.747 6.959-5.241 4.523-10.832-2.087-5.24-5.914-7.337-10.785-5.24-4.523 1.746-6.61 5.59-4.523 10.83zm3.131-1.048c-1.044-3.145.696-5.242 3.131-6.29 2.784-1.048 5.22-.699 6.61 2.446 1.045 3.145-.347 5.241-3.13 6.29-2.784 1.048-5.567.698-6.61-2.446zm1.392 11.88l1.044 3.843 4.523-1.048.347 1.048c1.044 4.542 4.176 6.639 7.307 5.94 3.479-.699 4.87-3.843 4.175-7.338l-1.392-6.289-16.004 3.844zm13.569.698l.348 1.747c.348 2.097-.348 2.796-2.088 3.145-1.392.35-2.783-.35-3.48-2.446l-.347-1.397 5.567-1.049zm-10.438 13.627l.348 3.844 9.046 4.193 2.435 1.048-2.087.35-8.35 1.048.348 3.843 16.004-2.096-.348-3.844-9.046-4.193-2.435-1.048 2.087-.35 8.35-1.047-.348-3.844-16.004 2.096zm1.74 26.206c0 2.097 0 3.494.696 4.892l2.783-.699c-.348-1.397-.348-2.096-.348-3.843 0-3.145 2.088-5.241 5.219-5.241 3.479 0 4.87 2.096 4.87 5.24 0 1.748-.347 2.447-.695 3.844l2.783 1.048c.696-1.048 1.044-2.445 1.044-4.891 0-5.94-2.435-9.085-8.002-9.085-5.219 0-8.35 2.795-8.35 8.735zm-.696 10.832l-.348 3.844 12.873 1.747-.696 4.891 3.131.35 1.74-13.977-3.131-.35-.696 4.893-12.873-1.398zm-3.48 18.17c-1.391 5.59.349 9.433 5.567 10.831 4.871 1.398 8.698-.35 10.438-5.94 1.392-5.241-.348-9.434-5.567-10.832-5.219-1.048-9.046.7-10.437 5.94zm2.784 1.048c1.044-3.145 3.48-3.844 6.263-3.145 2.783.699 4.523 2.795 3.827 5.94-1.044 3.145-3.48 3.843-6.263 3.145-2.783-.7-4.87-2.446-3.827-5.94zm-5.915 10.133l-2.435 5.94c-1.74 4.542-.348 6.638 2.435 7.687 2.088.698 3.827-.35 4.523-1.049.348 1.049.696 2.097 2.088 2.446 2.783 1.048 4.87-.35 6.262-3.843l2.088-5.241-14.96-5.94zm1.392 4.891l3.48 1.398-.697 1.747c-.695 2.096-1.74 2.795-3.13 2.446-1.045-.35-1.393-1.747-.697-3.494l1.044-2.097zm5.915 2.446l3.479 1.398-.348 1.048c-.696 1.747-1.392 2.446-2.783 1.747-1.392-.699-1.392-1.398-.696-3.145l.348-1.048zM30.32 202.335v25.507c.696.35 1.74.35 2.784.35 2.783 0 4.87-1.048 6.262-3.145 1.392-1.747 2.088-4.193 2.088-6.639 0-2.795-1.044-5.59-3.131-8.386-1.392-2.096-4.175-4.542-8.003-7.687zm-8.35 0c-2.783 2.446-4.523 3.844-5.566 4.892-1.74 1.747-3.132 3.494-4.176 5.241-1.043 1.747-1.391 3.494-1.391 5.59 0 2.796.696 4.893 2.087 6.64 1.392 2.096 3.827 3.144 6.263 3.144h1.392c.347 0 .695 0 1.391-.349v-25.158zm41.75 19.218l9.743-5.94c0-2.446 0-3.843.348-4.542.347-.7.695-.7 1.74-.7h5.218c.348 0 .696.35.696.7l-.348 2.446c-.348 1.747-.348 2.795-.696 3.843v4.193c0 4.892.348 9.784 1.044 14.326 0 .699 0 1.048-.348 1.398-.348.349-1.044.349-2.088.349h-3.479c-.696 0-1.392-1.048-1.74-3.145-.347-2.096-.347-7.687-.347-16.073l-9.742 5.94c0 1.747 0 3.145.348 4.892 0 1.747.348 3.844.696 6.988 0 .7 0 1.049-.348 1.398-.348.35-1.044.35-2.088.35h-4.523c-.348-.35-.696-1.049-.696-2.097l-.348-3.844v-5.24-4.543c0-5.241 0-8.386.348-9.784.348-1.397 1.044-1.747 1.74-1.747h5.219c.696 0 .696.35.696.7l-.348 2.445c-.348 1.398-.348 2.795-.348 3.843-.348.7-.348 2.097-.348 3.844zm33.401-6.988c-.348.699-.348 1.747-.696 2.096-.347.7-.695 1.747-1.043 2.097a32.482 32.482 0 0 0-2.436 6.639c-.348 1.747-.696 3.144-.696 4.542 0 1.048 0 1.747.348 2.446 0 .699.348 1.397.696 2.096.348.35.348 1.048.696 1.398.348.35.348.699.348.699 0 .35-.348.699-1.044.699h-5.914c-.696 0-1.392 0-1.392-.35-.348-.35-.348-.699-.348-1.747 0-2.795 1.044-5.94 3.131-9.434.696-1.048 1.74-2.795 3.48-5.59.695-1.049 1.739-2.447 2.435-3.495 1.044-1.747 1.392-3.144 1.392-4.193 0-.698 0-1.048-.348-1.747v-.699c0-.349.348-.349.348-.349h5.915c.695 0 1.39 0 1.39.35.349 0 .349.698.349 1.397 0 1.048.348 3.145 1.044 5.94.695 2.097 1.043 3.844 1.391 5.241l3.132 9.434c.695 1.398 1.043 2.796 1.74 4.193 0 .7-.349 1.049-1.045 1.049h-.695l-2.436-.35-2.435.35c-1.044 0-1.74-.35-2.088-1.049-.696-1.048-1.74-4.542-3.131-9.783l-.696-2.796c-.348-1.397-.696-2.096-.696-2.096 0-.699-.348-1.398-.696-2.795l-.348-2.097.348-2.096zm25.399 6.988l9.741-5.94c0-2.446 0-3.843.348-4.542.348-.7.696-.7 1.74-.7h5.219c.348 0 .696.35.696.7l-.348 2.446c-.348 1.747-.348 2.795-.696 3.843v4.193c0 4.892.348 9.784 1.044 14.326 0 .699 0 1.048-.348 1.398-.348.349-1.044.349-2.088.349h-3.48c-.695 0-1.39-1.048-1.739-3.145-.348-2.096-.348-7.687-.348-16.073l-9.741 5.94c0 1.747 0 3.145.348 4.892 0 1.747.347 3.844.695 6.988 0 .7 0 1.049-.348 1.398-.347.35-1.043.35-2.087.35h-4.523c-.348-.35-.696-1.049-.696-2.097l-.348-3.844v-5.24-4.543c0-5.241 0-8.386.348-9.784.348-1.397 1.044-1.747 1.74-1.747h5.219c.695 0 .695.35.695.7l-.348 2.445c-.347 1.398-.347 2.795-.347 3.843-.348.7-.348 2.097-.348 3.844zm55.32 11.88l.347 2.096c0 .7 0 2.097.348 4.193 0 2.097.348 3.844.348 5.242 0 3.144-.348 4.891-1.044 6.289-.696 1.048-1.392 1.747-2.783 1.747-.696 0-1.044-.35-1.392-.699v-.35-1.397V243.915v-2.096c0-.699 0-1.747-.348-2.795-.348-3.844-.696-6.989-.696-8.736 0-1.747-.348-3.494-.348-5.24 0-4.543 1.392-8.736 4.523-12.58 2.436-3.144 4.871-4.542 6.61-4.542 2.088 0 4.176 1.747 6.611 5.241 2.784 4.193 3.828 8.386 3.828 12.928 0 3.494-.696 6.29-2.436 8.386-1.392 2.097-3.48 3.145-5.915 3.145-1.391 0-2.783-.35-4.523-1.398-1.391-.35-2.435-1.397-3.13-2.795zm1.39-19.916c-1.043 1.397-1.39 2.795-2.087 4.192-.348 1.398-.696 3.145-.696 4.892 0 3.494 1.044 6.29 2.784 8.736 1.74 2.096 3.131 3.144 4.87 3.144.697 0 1.392-.35 2.088-.699.696-.698 1.392-2.096 1.392-3.843v-2.097c0-2.445-.696-4.891-2.436-8.036-1.74-2.795-3.827-5.241-5.914-6.29zm31.314-3.495h5.914c.348 0 .696 0 .696.35v1.048c0 .35 0 .699.348 1.747l1.044 3.494.348 1.747c1.392 5.241 2.435 9.434 3.48 12.929.695 2.096 1.39 3.843 2.087 5.94 0 .349-.348.349-1.044.349h-5.915c-.348 0-.348-.35-.696-.699 0-.35-.348-1.048-.348-1.398-.347-.698-.347-1.397-.695-2.096l-.696-2.446-.696-2.795c-.696 2.795-2.088 5.241-3.131 6.639-1.74 2.096-3.828 3.144-5.915 3.144-2.088 0-3.827-1.048-4.871-2.795-.696-1.398-1.392-3.145-1.392-4.892 0-2.096 1.044-4.193 2.784-6.988.696-1.048 2.087-2.795 4.523-5.59.348-.35 1.043-1.049 2.435-2.796.696-.699 1.044-1.397 1.044-1.747v-.699c0-.35 0-.698-.348-1.048 0-.35-.348-.699-.348-1.048.348 0 .696-.35 1.392-.35zm.348 5.94c-1.74 1.747-3.132 3.844-4.175 5.94-1.044 2.097-1.74 3.844-1.74 4.892 0 1.048.348 1.747.696 2.795.696.7 1.392 1.398 2.783 1.398 1.392 0 2.784-.699 3.827-1.747.696-1.048 1.392-2.096 1.392-3.145 0-.698 0-1.397-.348-2.096-.348-.699-.348-1.398-.696-2.097l-.696-2.445-1.043-3.495zM245.685 224h-9.742v2.096c.348 2.796.348 4.193.348 4.193 0 .7 0 1.398.348 2.796.348 1.048.348 2.096.348 3.144 0 .7 0 1.049-.348 1.398-.348.35-1.044.35-2.783.35h-2.784c-1.044 0-1.392-1.049-1.74-2.796-.347-1.747-.347-6.29-.347-12.928 0-5.59 0-8.735.348-10.133.347-1.048.695-1.747 1.74-1.747h5.218c.696 0 .696.35.696.699 0 1.048-.348 2.795-.696 5.59-.348 1.747-.348 3.145-.348 4.892l9.742.35c0-5.242.348-8.386.696-9.784.348-1.048.696-1.398 1.74-1.398h4.87c.696 0 .696.35.696.7 0 .349 0 .698-.348 1.397 0 .699-.348 1.397-.348 2.096-.348 2.097-.348 4.543-.348 7.338 0 3.145 0 5.94.348 8.036.348 2.097.348 4.193.696 6.29 0 .699-.348 1.397-.696 1.397s-1.391.35-2.435.35h-2.784c-1.043 0-1.74-.7-2.087-2.097v-12.23zm31.313 13.627h-15.309c-.696 0-1.044-.35-1.391-.699-.348-.35-.348-1.048-.348-1.747v-8.036c0-8.037 0-12.929.348-14.676.347-1.747 1.043-2.795 2.087-2.795H267.256c.348 0 .348 0 .696.35v.698c0 .35 0 1.049-.348 2.097s-.348 2.446-.348 3.843c0 1.398-.348 3.145-.348 4.193v1.398c2.436 0 4.523.35 6.61.699 2.088.698 3.828 1.397 5.567 2.795 1.74 1.398 3.132 3.145 3.827 4.892.696 1.397.696 2.795.696 4.193 0 1.048-.348 1.747-1.043 2.096-.348 0-1.044.35-2.088.35h-3.479v.349zm-9.742-2.097h7.654v-1.747c0-2.096-.348-3.494-1.043-4.891-1.392-2.097-3.48-3.494-6.611-3.844v10.482zm-122.12-30.049h20.875c.696 0 1.74 0 2.435-.35.696 0 1.392 0 1.74-.349h.696c.696 0 1.043.35 1.043.7.348.349.348.698.348 1.397 0 .35 0 .699-.348 1.397-.347.7-.347 1.049-.695 1.398 0 .35-.348.699-.348 1.398s-.348 1.397-.348 2.446c0 .698-.348 1.397-.348 1.747-.348.698-.696 1.048-1.392 1.048-.348 0-1.044-.35-1.044-.699 0 0-.348-.699-.348-1.398-.695-2.795-1.74-4.542-3.13-5.59-.697-.699-2.088-1.048-3.828-1.048h-3.479v27.952h4.175v2.097h-15.657v-2.097h4.175v-27.952h-4.175v-2.097h-.347zm-17.744-22.362c-1.044.35-1.044.35-1.74 1.747-1.044-.35 0 .35-.348-.35l-.348-.349s-.348-.699-.348-1.048c-.348-.699-.696-1.398-.696-1.747l-.696-1.048c-3.13-6.64-4.87-10.133-9.741-16.073-3.828-4.543-5.567-6.989-9.742-10.832-1.044-1.048-3.131-2.795-2.436-4.193 1.392-1.398 5.22 3.843 6.61 5.241 3.132 3.145 9.047 9.434 11.482 12.928 1.392 1.747 4.175 5.59 4.871 7.687.696.35 3.827 6.29 4.523 7.687l-1.391.35zm-43.49-51.364c-.697-1.048-2.088-2.096-2.784-2.795-1.044-1.048-2.088-1.747-3.131-2.795-1.74-1.747-3.48-4.193-4.871-6.639-.696-1.048-3.827-7.338-5.567-6.639-1.392 1.747.348 4.892 1.392 6.29 1.74 2.795 5.914 8.385 8.002 10.482.696.699 4.175 3.843 5.219 4.193.348.699 5.566 4.542 6.958 6.29-2.435-.35-12.525-9.784-13.917-11.88-.696-.7-1.391-1.398-2.087-2.447-.348-.349-.348-.698-1.044-1.048-.696-.699-.348-.699-1.044-1.048 0-.699-1.391-2.446-1.74-3.145-.347-.35-1.391-2.446-1.739-2.795-.696-2.097-2.088-3.844-1.044-6.29.696-1.397 2.436-3.144 4.175-3.843 1.392-.699 4.523-2.096 6.263-1.048 1.044.699 2.783 3.843 3.131 5.241.348.35 4.175 8.036 4.175 9.085l2.436 4.193c2.087 3.843 3.131 4.193 6.262 6.988 1.044 1.048 2.784 2.096 3.48 3.144-.348.7-3.828 2.446-4.871 2.796-.696-.35-5.915-4.543-6.263-5.59-.348.349-.696-.35-1.392-.7zM47.37 103.801c-.696 0-2.436 1.398-3.132 1.748l-6.262 3.494c-.696.35-3.132 1.048-3.48 1.397-1.74.35-9.741 2.446-11.133 3.494-1.044 4.892 4.87 11.88 7.306 14.326 2.436 2.446 9.046 8.386 12.525 8.736 3.132 0 10.786-15.025 13.221-18.869.696-1.397 1.044-2.096 2.784-2.446 1.392-.349 3.131-.698 4.523-.698 1.392 5.59 9.046 16.422 12.525 18.169.348.699 4.87 4.542 5.915 5.59l11.133 9.435c.696.699.696.699 1.74 1.048.696.35 1.044 1.048 1.391 1.398l3.132 2.795c.696.35 1.044 1.048 1.74 1.398 5.566 4.542 11.829 13.277 15.308 19.916 1.044 1.747 3.131 6.29 3.48 8.036 1.043 1.049 1.39 4.543 2.435 5.94.695-1.048 1.391-1.397 1.74-2.446l1.043-1.048 1.044-1.048c1.391-1.048 2.087 0 2.435-1.048l8.698-9.085c-.348-1.398-5.219-7.338-6.61-8.386l-10.438-11.53c-2.435-2.446-3.827-4.193-6.61-6.29l-4.871-4.193c-2.784-2.096-9.046-8.036-12.178-10.133l-6.262-4.891c-2.784-2.446-9.046-15.374-9.046-16.772-.348-.35-2.784-4.542-2.784-5.59 0-2.796.348-3.145-.695-5.591l-.696-1.398v-1.048c0-.699 0-.699-.348-1.048-.696-1.747-4.871-4.892-6.61-5.94-2.784-1.747-5.567.35-8.699 2.446-2.435 1.397-5.219 3.144-7.654 4.891l-6.61 5.241c.347 0 .347 0 0 0 .347 0 .347 0 0 0zm-15.657 10.832c.348 1.048 1.74 3.494 2.436 4.892 1.043 1.747 2.087 2.795 3.13 4.193 2.436 2.446 5.568 4.193 9.743 5.241.348.699.348.699-.348 1.398-.348.699-.696 1.048-1.044 1.747-.348 1.048-1.044 2.446-1.74 3.144-5.914-1.397-18.787-13.627-18.787-19.916l4.87-1.048c1.392 0 1.392.35 1.74.35-.348 0 0 0 0 0zm17.048 12.579c-4.523.35-15.656-7.687-15.308-13.627.348-.35 5.914-2.446 9.046-4.193 1.043-.699 7.306-4.892 8.002-4.892.348-.699.696-.699 1.392-1.397.695-.7 3.827-2.446 4.175-3.145.695 0 .695-.35 1.391-.699 1.044-.699 3.48-2.096 4.175-2.446l6.263 4.892c3.131-1.048 4.87-4.542 9.046-3.843v.698c-1.74.7-5.915 2.796-6.61 3.844-1.044.35-4.524 3.145-5.567 3.843-9.394 6.989-7.307 1.398-10.09 8.037-.348 1.048-2.088 5.241-2.783 5.94l-.348.699c0 1.747-2.784 4.891-2.784 6.289zm124.904 42.279c3.48-3.145 1.74-1.747 4.175-2.097 3.131-.35 5.915-2.446 6.61-5.59 0-.7-.347-1.398.349-2.097.695-.699 1.391-1.397 2.087-1.747.696 1.398.348 3.844 0 4.892-1.392 6.988-9.046 9.085-13.22 6.639zm7.654-24.808l1.044.349.696-.699 4.175-3.494 2.435-2.096 1.392-1.398 7.654-6.639 1.74-1.397 7.654-6.64c4.523-3.493 8.698-7.337 12.873-11.18 4.523-3.495 8.698-7.338 12.874-11.182 1.74-1.397 4.523-4.193 6.61-4.891 4.523-1.398 9.046 2.446 8.698 6.988-.348 2.446-1.392 3.843-3.827 5.59-17.396 14.676-34.444 29.7-51.84 44.376 1.74 1.747 1.74 2.096 2.783 4.193 1.044-.7.348-1.398 0-2.446l1.392-1.049c1.391 1.398 0 2.796 4.523-1.747l-.348-2.096 1.391-1.048c1.044 1.397.348 2.795 4.523-1.747 0-.7-.348-1.398-.348-2.097l1.392-1.048c.696.699.348.699 1.044 1.398.348 0 3.48-2.446 3.48-3.495v-.349c0-.35-.349-.699-.349-1.048l1.392-1.398c.348.699.348 1.048 1.044 1.398l3.479-3.145c0-.699-.348-1.398-.696-1.747l1.392-1.398 1.043 1.398c3.828-3.843 3.828-2.795 2.784-5.241l1.392-1.048c1.043 1.048.695 2.096 2.087.699.696-.7 1.74-1.398 2.436-2.446l-.348-2.097 1.391-1.048 1.044 1.398c1.044-.35 2.783-2.097 3.48-3.145 0-.699-.349-1.398-.349-2.097l1.392-1.048c.348.699.348 1.048 1.044 1.398 1.044-.35 2.783-2.446 3.827-3.145l-.696-1.747 1.392-1.048 1.044 1.397c.347-.349 3.479-2.795 3.479-3.144l-.348-1.398 1.392-1.048c.695.699.347.699 1.043 1.398 4.175-4.193 2.436-1.748 2.436-5.591.696 0 .696.35 1.74.35.695-.7 1.391-2.796 1.739-3.495-.696-.699-1.74-.35-2.435-.699v-1.397c.695 0 1.391.35 2.087 0 .348-2.097 0-1.747-.348-3.494l-1.044-1.049-1.391.7-1.74-1.398c.348-.35.696-1.049.696-1.398-1.044-1.398-2.783-2.795-4.175-2.795-.696.699-.696 1.397-1.044 2.446h-1.044c-.348-1.049-.348-1.398-1.043-2.446-1.392 0-3.48 0-5.22 1.397l.697 1.398-1.74 1.398-1.74-.7c-1.043.7-2.435 1.748-3.13 2.796.347.699.695.699 1.39 1.048l-1.39 1.398-1.74-.699c-1.044.699-3.132 2.097-3.48 3.145l1.392 1.048-1.392 1.048-2.087-1.048c-1.044.699-3.132 2.097-3.827 3.494l1.391 1.048-1.391 1.398c-.696-.35-1.392-.699-1.74-.699-1.044.7-3.131 2.097-3.48 3.145l1.392 1.048-1.391 1.398-1.392-.699h-.348l-3.827 3.145 1.392 1.048-1.74.699c-.696-.35-1.044-.7-1.74-.7-1.043.7-3.13 2.097-3.827 3.146l1.392 1.048-1.392 1.398-1.391-1.049c-1.044.7-3.132 2.097-3.827 3.145l1.391 1.048-1.391 1.398-1.74-.699c-1.044.699-1.74 1.398-2.783 2.097-1.392 1.048-.348 1.048.347 2.096l-1.391 1.048c-.696-.35-1.392-.699-1.74-.699-1.044.7-3.131 2.097-3.48 3.145l1.393 1.048-1.392 1.398-1.74-.699-3.827 3.145 1.392 1.048-2.088 1.048-1.391-.699-1.74 1.398 3.131 2.097zm-20.18 21.663c-1.739 1.398-1.043 3.494-1.043 5.241 0 .7 0 1.398.348 1.747-.348 1.049.348 3.844.348 4.892-.348.35-.696.699-1.392.699-.696-.699-.696-.35-.696-1.398l-1.043-9.783c0-1.049 2.087-4.193 2.783-5.241.696-1.398 2.088-4.543 3.48-4.892l1.043.699c-.348 1.048-1.044 1.747-1.044 2.445-.696 1.748-2.435 4.193-2.783 5.591zm-2.782-2.096v.349c0 .35 0 .35-.348.35l-1.044 2.096c-.696 1.398-.696 1.398-.348 2.795 0 1.048.696 4.892.348 5.59.348.7.348.7.348 1.398 0 .7.348 1.049 0 1.398 0 .699.348 2.097.348 2.446l-.348.699c.348.699.348 3.494.696 4.542.348 2.795 0 6.639 3.13 3.844 2.436-2.097 4.176-3.145 5.916-5.94 1.74-2.446 3.479-5.94 5.218-8.386l3.48.699c1.043 0 3.13-2.097 3.827-2.796 2.783-2.096 5.219-4.542 8.002-6.639 3.827-3.494 11.83-8.036 2.783-13.976l-2.435-1.747c-.348 0-.696-.35-1.044-.699-.696 0-6.262-3.843-7.306-4.542h-.348c-1.044-1.048-3.48-2.446-5.219-2.795-1.74-.35-3.827.349-5.567 2.445-1.044 1.049-5.566 9.085-5.914 10.133 0 1.398-3.132 8.037-4.175 8.736zm10.09-.35c-.697-4.542-.697-1.747-.349-5.94.348-.699.696-2.096 1.74-3.144 1.044-1.398 2.435-2.097 3.131-3.145l1.044-.35c3.48-1.397 7.654-.698 10.438 1.747.695.7 2.435 2.446 2.435 3.844l-13.917 11.88h-.348c-1.74-.699-3.479-3.494-4.175-4.892zm1.739-8.036c-1.044 1.048-1.74 3.843-.696 4.891 1.044-.349 1.044-1.048 1.392-1.747.348-.698.696-2.096.696-2.795.347-1.048-.696-1.747-1.392-.35zm45.23-33.893l26.442-22.712c.696-4.542-4.871 1.048-6.61 2.795-2.784 2.446-5.568 4.543-8.003 6.989-2.783 2.446-5.567 4.542-8.35 6.988-1.392 1.048-8.35 5.94-3.48 5.94zm-79.326 74.774l4.87 5.94c1.392.699 2.088 1.747 3.828 1.747 1.391 0 2.435-.699 4.175-1.048l38.619-33.194c.348-.7.696-1.049 1.044-2.097-2.784 2.446-5.22 4.542-8.002 6.988-5.915 4.892-3.828 2.097-7.655 2.446-5.914 8.037-2.435 6.988-11.481 13.977-2.088 1.747-3.131.698-4.175-1.398-2.784 2.446-5.915 4.892-8.698 7.338-1.392 1.397-2.436 2.096-4.175 1.747-3.132-.7-5.567-5.241-4.523-9.434.696-2.446 3.131-8.037 4.87-9.784l.349-.699c0-.35 0-.35.347-.35l1.74-2.445c1.392-2.096 5.219-5.59 7.306-7.338 1.044-.698.696-.35.696-1.048v-.699c0-.35.348-1.048.696-1.397 1.392-2.097 4.871-9.085 6.263-11.53 2.087-3.844 3.827-8.037 7.306-11.531-1.044-.35-3.131-.35-4.523-.35-3.131.35-3.48 1.398-4.523 1.747l-1.74 1.398c-.347.699-3.827 5.241-4.87 6.29-4.176 5.24-9.742 13.277-12.874 18.518-2.087 3.844-4.523 8.735-5.566 12.579-.348 1.747-1.044 4.542-1.044 6.639 0 1.048 0 2.096.348 3.144.348 1.747 1.392 2.796 1.392 3.844z"/>
    </g>
</svg>
